<?xml version="1.0" encoding="utf-8"?>
<!-- Generator: Adobe Illustrator 19.2.1, SVG Export Plug-In . SVG Version: 6.00 Build 0)  -->
<svg version="1.1" xmlns="http://www.w3.org/2000/svg" xmlns:xlink="http://www.w3.org/1999/xlink" x="0px" y="0px"
	 viewBox="0 0 247.5 203.4" style="enable-background:new 0 0 247.5 203.4;" xml:space="preserve">
<style type="text/css">
	.st0{fill:#1C2C3B;}
</style>
<g id="Capa_1">
</g>
<g id="Capa_2">
	<g>
		<g>
			<path class="st0" d="M18.9,88.6l-1.1-9.8l4.7-0.5l1.1,9.8L18.9,88.6z"/>
			<path class="st0" d="M22.3,101.4c3.2-1.2,6-1.6,8.4-1c2.4,0.5,4,1.9,4.8,4c0.6,1.7,0.4,3.4-0.7,5.1l10.6-4l1.8,4.7l-29.4,11
				l-1.6-4.3l2.1-1.1c-2.2-0.5-3.6-1.7-4.3-3.6c-0.8-2.1-0.4-4.1,1-6.1S18.9,102.7,22.3,101.4z M23.7,106.3
				c-1.9,0.7-3.3,1.6-4.1,2.5c-0.8,1-1,2-0.6,3.1c0.5,1.5,1.7,2.2,3.3,2.3l8.2-3.1c1.2-1.1,1.6-2.4,1-3.9
				C30.6,105,28,104.6,23.7,106.3z"/>
			<path class="st0" d="M30.1,121.1c1.9-1.2,3.7-1.9,5.6-2.2c1.8-0.3,3.5-0.1,5,0.5c1.5,0.7,2.7,1.7,3.7,3.3c1.3,2.2,1.7,4.4,1,6.7
				c-0.7,2.3-2.3,4.4-4.9,6.2l-1.3,0.8c-2.9,1.8-5.6,2.5-8.2,2.3c-2.6-0.3-4.6-1.6-6.1-3.9c-1.4-2.3-1.7-4.7-0.8-7.2
				c0.9-2.5,2.8-4.6,5.8-6.5L30.1,121.1z M32.4,125.6c-1.8,1.1-3,2.2-3.6,3.4c-0.6,1.2-0.6,2.3,0.1,3.3c0.6,1,1.6,1.6,2.9,1.6
				c1.3,0,3-0.6,5-1.9c1.8-1.1,2.9-2.2,3.5-3.4c0.6-1.2,0.6-2.3-0.1-3.4c-0.7-1-1.6-1.6-2.9-1.5C36.1,123.7,34.4,124.3,32.4,125.6z"
				/>
			<path class="st0" d="M53.2,135.5l-1.8,1.9c2.4-0.4,4.3,0.3,5.9,1.9c1.4,1.5,1.9,3,1.5,4.7c-0.3,1.7-1.5,3.4-3.5,5.3L44.9,159
				l-3.4-3.7l10.3-9.7c0.9-0.9,1.4-1.6,1.5-2.4c0.1-0.7-0.2-1.5-1-2.3c-1-1-2.2-1.3-3.7-0.9l-11.4,10.6l-3.4-3.7L50,132L53.2,135.5z
				"/>
			<path class="st0" d="M62.1,146.3l-0.8-2.8c2-0.8,3.6-1.9,4.9-3.3l2.2-2.6l3.1,2.6l-2.1,2.4c-0.8,0.9-1.9,1.8-3.3,2.5
				C64.9,145.8,63.5,146.2,62.1,146.3z"/>
			<path class="st0" d="M75.8,148.1l-3.1,4.5l2.6,1.8l-2.5,3.6l-2.6-1.8l-6.3,9.1c-0.5,0.7-0.7,1.2-0.7,1.7c0,0.4,0.3,0.9,1,1.3
				c0.5,0.3,0.9,0.6,1.3,0.7l-2.6,3.7c-1-0.3-2-0.7-2.8-1.3c-2.9-2-3.2-4.8-0.9-8.2l6.8-9.8l-2.3-1.6l2.5-3.6l2.3,1.6l3.1-4.5
				L75.8,148.1z"/>
			<path class="st0" d="M86.1,183.9l5.6-16.9l-2.7-0.9l1.4-4.1l2.7,0.9l0.6-1.8c0.8-2.4,2-4,3.5-4.9c1.6-0.9,3.4-1,5.5-0.3
				c0.7,0.2,1.4,0.6,2.3,1.2l-1.5,4.3c-0.4-0.2-0.8-0.5-1.4-0.7c-1.8-0.6-3,0.1-3.7,2.1l-0.6,1.7l3.6,1.2l-1.4,4.1l-3.6-1.2
				l-5.6,16.9L86.1,183.9z"/>
			<path class="st0" d="M100.4,176.9c0.3-2.2,1-4,2-5.6c1-1.6,2.2-2.7,3.7-3.4c1.5-0.7,3.1-0.9,4.9-0.7c2.5,0.4,4.4,1.6,5.7,3.7
				c1.3,2.1,1.8,4.6,1.5,7.8l-0.2,1.5c-0.5,3.4-1.8,5.9-3.7,7.7c-1.9,1.8-4.2,2.4-6.9,2c-2.7-0.4-4.7-1.8-6-4.1
				c-1.3-2.3-1.6-5.1-1.1-8.6L100.4,176.9z M105.4,178.1c-0.3,2.1-0.3,3.7,0.2,4.9s1.4,1.9,2.6,2.1c1.2,0.2,2.2-0.2,3.1-1.2
				s1.5-2.7,1.8-5c0.3-2,0.2-3.7-0.3-4.9c-0.5-1.2-1.4-1.9-2.6-2.1c-1.2-0.2-2.3,0.2-3.1,1.2C106.3,174.1,105.7,175.7,105.4,178.1z"
				/>
			<path class="st0" d="M132.2,174.2c-0.7-0.1-1.3-0.1-1.8-0.1c-1.9,0-3.1,0.8-3.7,2.3l0.2,14.5l-5,0.1l-0.4-22.1l4.8-0.1l0.2,2.6
				c1-2,2.4-3.1,4.2-3.1c0.6,0,1.1,0.1,1.6,0.2L132.2,174.2z"/>
			<path class="st0" d="M134.7,179.7c-0.5-3.4-0.3-6.2,0.7-8.4c1-2.3,2.7-3.6,5-4c2-0.3,3.8,0.2,5.2,1.7l-0.1-2.1l4.5-0.7l3.4,21.1
				c0.3,1.9,0.2,3.6-0.3,5.2c-0.5,1.5-1.4,2.8-2.6,3.7c-1.2,1-2.7,1.6-4.5,1.9c-1.4,0.2-2.8,0.1-4.2-0.3c-1.4-0.4-2.5-1.1-3.3-2
				l1.6-3.9c1.5,1.4,3.1,2,4.9,1.7c1.3-0.2,2.3-0.8,2.9-1.7c0.6-0.9,0.8-2.2,0.5-3.7l-0.2-1.2c-0.9,1.7-2.3,2.7-4.2,3
				c-2.2,0.4-4.2-0.4-5.9-2.2c-1.7-1.8-2.8-4.4-3.4-7.8L134.7,179.7z M139.8,179.3c0.3,2,0.9,3.5,1.8,4.5c0.9,1,1.9,1.4,3.1,1.2
				c1.5-0.2,2.5-1.1,2.9-2.5l-1.5-9.2c-0.9-1.2-2.1-1.7-3.5-1.5c-1.2,0.2-2,0.9-2.5,2.2C139.5,175.3,139.4,177,139.8,179.3z"/>
			<path class="st0" d="M168.7,183.5c-2.6,1-5.1,0.8-7.4-0.4c-2.3-1.3-4.1-3.4-5.2-6.5l-0.2-0.5c-0.8-2.1-1.1-4.1-1-6
				c0.1-1.9,0.6-3.5,1.5-4.9s2.2-2.3,3.8-2.9c2.4-0.9,4.7-0.7,6.7,0.6c2.1,1.3,3.7,3.6,4.9,6.8l0.8,2.3l-11.3,4.2
				c0.7,1.3,1.5,2.2,2.6,2.7c1.1,0.5,2.2,0.6,3.4,0.1c1.8-0.7,3-2,3.4-3.9l3.5,2.2c-0.3,1.4-0.9,2.7-1.9,3.8
				C171.4,182.2,170.1,183,168.7,183.5z M161.8,166.7c-0.9,0.3-1.6,1-1.9,2s-0.3,2.2,0.1,3.6l6.6-2.4l-0.2-0.4
				c-0.5-1.2-1.1-2.1-1.9-2.5S162.8,166.3,161.8,166.7z"/>
			<path class="st0" d="M172.3,150.9l2.6,4.8l2.8-1.6l2.1,3.8l-2.8,1.6l5.4,9.6c0.4,0.7,0.8,1.2,1.2,1.3c0.4,0.2,0.9,0.1,1.6-0.3
				c0.5-0.3,0.9-0.6,1.2-0.8l2.2,3.9c-0.7,0.8-1.5,1.4-2.4,2c-3.1,1.7-5.7,0.8-7.8-2.8l-5.8-10.4l-2.4,1.3l-2.1-3.8l2.4-1.3
				l-2.6-4.8L172.3,150.9z"/>
			<path class="st0" d="M216,150c-0.5-0.2-1.1-0.5-1.8-1c0.3,2-0.1,3.7-1.5,5.1c-1.3,1.4-2.8,2.1-4.5,2.1c-1.7,0-3.3-0.6-4.7-1.9
				c-1.7-1.6-2.5-3.4-2.5-5.3c0.1-1.9,1.1-3.9,3-6l1.6-1.7l-0.9-0.9c-0.8-0.7-1.5-1.1-2.3-1.2c-0.8-0.1-1.5,0.2-2.1,0.9
				c-0.6,0.6-0.9,1.3-0.8,2s0.3,1.3,1,1.9l-3.4,3.7c-0.9-0.9-1.6-1.9-1.9-3.2c-0.3-1.2-0.3-2.5,0.1-3.8c0.4-1.3,1.1-2.6,2.1-3.7
				c1.6-1.7,3.3-2.6,5.3-2.7c1.9-0.1,3.8,0.7,5.6,2.4l7.1,6.5c1.6,1.4,2.9,2.3,4,2.7l0.3,0.2L216,150z M210.2,150.3
				c0.5-0.5,0.8-1.2,1-1.9s0.1-1.4-0.2-2.1l-2.8-2.6l-1.3,1.4c-1.7,1.9-1.9,3.5-0.5,5l0.2,0.2c0.5,0.5,1.1,0.7,1.8,0.7
				C209.1,151.2,209.7,150.9,210.2,150.3z"/>
			<path class="st0" d="M223,121.1c2.9,1.8,4.9,3.8,5.9,6c1,2.2,1,4.3-0.2,6.2c-1,1.6-2.5,2.5-4.4,2.7l8.9,5.5l-2.7,4.3l-26-16.1
				l2.5-4l1.9,1c-0.8-1.9-0.7-3.8,0.3-5.4c1.2-2,3-3,5.4-3c2.4,0,5.1,0.9,8.1,2.7L223,121.1z M219.9,125.2c-1.7-1.1-3.3-1.7-4.5-1.7
				c-1.3-0.1-2.2,0.4-2.9,1.4c-0.8,1.3-0.8,2.6,0.1,3.9l7.7,4.8c1.6,0.2,2.8-0.3,3.6-1.7C225.2,129.9,223.9,127.6,219.9,125.2z"/>
			<path class="st0" d="M236.4,117l-2,4.6l-28.8-12.5l2-4.6L236.4,117z"/>
			<path class="st0" d="M211.9,103.2c-0.8-0.3-1.5-0.7-1.8-1.4c-0.4-0.7-0.4-1.4-0.2-2.2c0.3-0.8,0.8-1.4,1.5-1.7
				c0.7-0.3,1.5-0.3,2.3,0c0.9,0.3,1.5,0.8,1.9,1.4c0.4,0.7,0.4,1.4,0.2,2.2c-0.3,0.8-0.8,1.4-1.5,1.7
				C213.6,103.5,212.8,103.5,211.9,103.2z M240,106.9l-1.6,4.8l-21-7l1.6-4.8L240,106.9z"/>
			<path class="st0" d="M234.7,80.5l-1.2,9.8l-4.7-0.6l1.2-9.8L234.7,80.5z"/>
		</g>
	</g>
	<g>
		<path d="M123.9,135.2c-22-17-46.9-36.3-46.7-100.1c16.4-5.1,29.9-10.8,40.9-15.3c2.9-1.2,5.6-2.3,8.2-3.4v-10
			c-3.6,1.4-7.6,3-11.8,4.8C103,16,88.7,22,71.2,27.3l-3.3,1l-0.1,3.4c-1.2,71.1,27.3,93.2,50.3,111c2,1.5,7,5.4,8.2,6.3v-11.8
			C125.5,136.5,124.7,135.9,123.9,135.2z"/>
		<g>
			<g>
				<path d="M134.6,19.8c-2.9-1.2-5.7-2.3-8.3-3.4v61.9l29-29c2.9-2.9,7.7-2.9,10.7,0c2.9,2.9,2.9,7.7,0,10.7l-39.7,39.7v37.4
					c0.8-0.6,1.7-1.3,2.5-1.9c22.4-17,47.7-36.3,47.4-100.1C159.6,30,145.8,24.4,134.6,19.8z"/>
			</g>
			<path d="M160.7,47.1c1.9,0,3.9,0.7,5.3,2.2c2.9,2.9,2.9,7.7,0,10.7l-43,43c-1.5,1.5-3.4,2.2-5.3,2.2c-1.9,0-3.9-0.7-5.3-2.2
				L97.9,88.8c-2.9-2.9-2.9-7.7,0-10.7c1.5-1.5,3.4-2.2,5.3-2.2c1.9,0,3.9,0.7,5.3,2.2l9.1,8.9l37.7-37.7
				C156.8,47.8,158.8,47.1,160.7,47.1 M160.7,42.3L160.7,42.3c-3.3,0-6.4,1.3-8.8,3.6l-34.3,34.3l-5.7-5.6c-2.3-2.3-5.4-3.6-8.7-3.6
				c-3.3,0-6.4,1.3-8.8,3.6c-4.8,4.8-4.8,12.7,0,17.5l14.5,14.3c2.3,2.3,5.4,3.6,8.7,3.6c3.3,0,6.4-1.3,8.8-3.6l43-43
				c2.3-2.3,3.6-5.4,3.6-8.8c0-3.3-1.3-6.4-3.6-8.8C167.1,43.6,164,42.3,160.7,42.3L160.7,42.3z"/>
		</g>
		<g>
			<path class="st0" d="M138.1,11.2c-4.2-1.7-8.2-3.4-11.8-4.8v5.9h14.4C139.8,11.9,138.9,11.6,138.1,11.2z"/>
			<path class="st0" d="M134.5,19.8c11,4.6,24.5,10.2,40.9,15.3c0.2,63.8-24.7,83-46.7,100.1c-0.8,0.6-1.6,1.3-2.5,1.9v11.8
				c1.2-0.9,6.2-4.7,8.2-6.3c22.9-17.7,51.5-39.8,50.3-111l-0.1-3.4l-3.3-1c-16.2-4.9-29.7-10.4-40.8-15h-14.4v4.2
				C128.9,17.5,131.6,18.7,134.5,19.8z"/>
		</g>
	</g>
</g>
</svg>
