<?xml version="1.0" encoding="utf-8"?>
<!-- Generator: Adobe Illustrator 19.2.1, SVG Export Plug-In . SVG Version: 6.00 Build 0)  -->
<svg version="1.1" id="Capa_1" xmlns="http://www.w3.org/2000/svg" xmlns:xlink="http://www.w3.org/1999/xlink" x="0px" y="0px"
	 viewBox="0 0 247.5 203.4" style="enable-background:new 0 0 247.5 203.4;" xml:space="preserve">
<style type="text/css">
	.st0{fill:#969696;}
	.st1{fill:#FFFFFF;}
</style>
<g id="Capa_1_1_">
</g>
<g id="Capa_2">
	<g>
		<g>
			<path class="st0" d="M17.5,83.7l-1.1-9.5l4.5-0.5l1.1,9.5L17.5,83.7z"/>
			<path class="st0" d="M20.7,96c3.1-1.2,5.8-1.5,8.1-1c2.3,0.5,3.9,1.8,4.6,3.9c0.6,1.6,0.4,3.3-0.7,4.9L43,100l1.7,4.5l-28.4,10.6
				l-1.5-4.1l2-1.1c-2.1-0.5-3.5-1.6-4.1-3.5c-0.8-2-0.4-4,1-5.9S17.5,97.3,20.7,96z M22.1,100.8c-1.8,0.7-3.2,1.5-4,2.4
				c-0.8,1-1,1.9-0.6,3c0.5,1.4,1.6,2.1,3.2,2.2l7.9-3c1.2-1.1,1.5-2.3,1-3.8C28.7,99.5,26.2,99.1,22.1,100.8z"/>
			<path class="st0" d="M28.3,115c1.8-1.2,3.6-1.8,5.4-2.1c1.7-0.3,3.4-0.1,4.8,0.5c1.4,0.7,2.6,1.6,3.6,3.2c1.3,2.1,1.6,4.2,1,6.5
				s-2.2,4.2-4.7,6l-1.3,0.8c-2.8,1.7-5.4,2.4-7.9,2.2c-2.5-0.3-4.4-1.5-5.9-3.8c-1.4-2.2-1.6-4.5-0.8-6.9c0.9-2.4,2.7-4.4,5.6-6.3
				L28.3,115z M30.5,119.4c-1.7,1.1-2.9,2.1-3.5,3.3c-0.6,1.2-0.6,2.2,0.1,3.2c0.6,1,1.5,1.5,2.8,1.5c1.3,0,2.9-0.6,4.8-1.8
				c1.7-1.1,2.8-2.1,3.4-3.3c0.6-1.2,0.6-2.2-0.1-3.3c-0.7-1-1.5-1.5-2.8-1.4C34,117.5,32.4,118.1,30.5,119.4z"/>
			<path class="st0" d="M50.5,128.9l-1.7,1.8c2.3-0.4,4.1,0.3,5.7,1.8c1.4,1.4,1.8,2.9,1.4,4.5c-0.3,1.6-1.4,3.3-3.4,5.1l-10,9.4
				l-3.3-3.6l9.9-9.4c0.9-0.9,1.4-1.5,1.4-2.3c0.1-0.7-0.2-1.4-1-2.2c-1-1-2.1-1.3-3.6-0.9l-11,10.2l-3.3-3.6l15.6-14.4L50.5,128.9z
				"/>
			<path class="st0" d="M59.1,139.3l-0.8-2.7c1.9-0.8,3.5-1.8,4.7-3.2l2.1-2.5l3,2.5l-2,2.3c-0.8,0.9-1.8,1.7-3.2,2.4
				C61.8,138.9,60.5,139.2,59.1,139.3z"/>
			<path class="st0" d="M72.3,141.1l-3,4.3l2.5,1.7l-2.4,3.5l-2.5-1.7l-6.1,8.8c-0.5,0.7-0.7,1.2-0.7,1.6c0,0.4,0.3,0.9,1,1.3
				c0.5,0.3,0.9,0.6,1.3,0.7l-2.5,3.6c-1-0.3-1.9-0.7-2.7-1.3c-2.8-1.9-3.1-4.6-0.9-7.9l6.6-9.5l-2.2-1.5l2.4-3.5l2.2,1.5l3-4.3
				L72.3,141.1z"/>
			<path class="st0" d="M82.3,175.6l5.4-16.3l-2.6-0.9l1.4-4l2.6,0.9l0.6-1.7c0.8-2.3,1.9-3.9,3.4-4.7c1.5-0.9,3.3-1,5.3-0.3
				c0.7,0.2,1.4,0.6,2.2,1.2l-1.4,4.1c-0.4-0.2-0.8-0.5-1.4-0.7c-1.7-0.6-2.9,0.1-3.6,2l-0.6,1.6l3.5,1.2l-1.4,4l-3.5-1.2l-5.4,16.3
				L82.3,175.6z"/>
			<path class="st0" d="M96.1,168.9c0.3-2.1,1-3.9,1.9-5.4c1-1.5,2.1-2.6,3.6-3.3s3-0.9,4.7-0.7c2.4,0.4,4.2,1.5,5.5,3.6
				c1.3,2,1.7,4.4,1.4,7.5l-0.2,1.4c-0.5,3.3-1.7,5.7-3.6,7.4c-1.8,1.7-4.1,2.3-6.7,1.9s-4.5-1.7-5.8-4s-1.5-4.9-1.1-8.3L96.1,168.9
				z M100.9,170c-0.3,2-0.3,3.6,0.2,4.7s1.4,1.8,2.5,2c1.2,0.2,2.1-0.2,3-1.2c0.9-1,1.4-2.6,1.7-4.8c0.3-1.9,0.2-3.6-0.3-4.7
				c-0.5-1.2-1.4-1.8-2.5-2c-1.2-0.2-2.2,0.2-3,1.2C101.8,166.2,101.2,167.7,100.9,170z"/>
			<path class="st0" d="M126.8,166.3c-0.7-0.1-1.3-0.1-1.7-0.1c-1.8,0-3,0.8-3.6,2.2l0.2,14l-4.8,0.1l-0.4-21.3l4.6-0.1l0.2,2.5
				c1-1.9,2.3-3,4.1-3c0.6,0,1.1,0.1,1.5,0.2L126.8,166.3z"/>
			<path class="st0" d="M129.2,171.6c-0.5-3.3-0.3-6,0.7-8.1c1-2.2,2.6-3.5,4.8-3.9c1.9-0.3,3.7,0.2,5,1.6l-0.1-2l4.3-0.7l3.3,20.4
				c0.3,1.8,0.2,3.5-0.3,5c-0.5,1.4-1.4,2.7-2.5,3.6c-1.2,1-2.6,1.5-4.3,1.8c-1.4,0.2-2.7,0.1-4.1-0.3c-1.4-0.4-2.4-1.1-3.2-1.9
				l1.5-3.8c1.4,1.4,3,1.9,4.7,1.6c1.3-0.2,2.2-0.8,2.8-1.6s0.8-2.1,0.5-3.6l-0.2-1.2c-0.9,1.6-2.2,2.6-4.1,2.9
				c-2.1,0.4-4.1-0.4-5.7-2.1c-1.6-1.7-2.7-4.2-3.3-7.5L129.2,171.6z M134.1,171.2c0.3,1.9,0.9,3.4,1.7,4.3c0.9,1,1.8,1.4,3,1.2
				c1.4-0.2,2.4-1.1,2.8-2.4l-1.4-8.9c-0.9-1.2-2-1.6-3.4-1.4c-1.2,0.2-1.9,0.9-2.4,2.1C133.8,167.3,133.7,169,134.1,171.2z"/>
			<path class="st0" d="M162,175.2c-2.5,1-4.9,0.8-7.1-0.4c-2.2-1.3-4-3.3-5-6.3l-0.2-0.5c-0.8-2-1.1-4-1-5.8
				c0.1-1.8,0.6-3.4,1.4-4.7c0.9-1.4,2.1-2.2,3.7-2.8c2.3-0.9,4.5-0.7,6.5,0.6c2,1.3,3.6,3.5,4.7,6.6l0.8,2.2l-10.9,4.1
				c0.7,1.3,1.4,2.1,2.5,2.6c1.1,0.5,2.1,0.6,3.3,0.1c1.7-0.7,2.9-1.9,3.3-3.8l3.4,2.1c-0.3,1.4-0.9,2.6-1.8,3.7
				C164.6,174,163.3,174.7,162,175.2z M155.3,159c-0.9,0.3-1.5,1-1.8,1.9c-0.3,1-0.3,2.1,0.1,3.5l6.4-2.3l-0.2-0.4
				c-0.5-1.2-1.1-2-1.8-2.4C157.1,158.9,156.3,158.6,155.3,159z"/>
			<path class="st0" d="M165.4,143.8l2.5,4.6l2.7-1.5l2,3.7l-2.7,1.5l5.2,9.3c0.4,0.7,0.8,1.2,1.2,1.3c0.4,0.2,0.9,0.1,1.5-0.3
				c0.5-0.3,0.9-0.6,1.2-0.8l2.1,3.8c-0.7,0.8-1.4,1.4-2.3,1.9c-3,1.6-5.5,0.8-7.5-2.7l-5.6-10l-2.3,1.3l-2-3.7l2.3-1.3l-2.5-4.6
				L165.4,143.8z"/>
			<path class="st0" d="M207.6,142.9c-0.5-0.2-1.1-0.5-1.7-1c0.3,1.9-0.1,3.6-1.4,4.9c-1.3,1.4-2.7,2-4.3,2c-1.6,0-3.2-0.6-4.5-1.8
				c-1.6-1.5-2.4-3.3-2.4-5.1c0.1-1.8,1.1-3.8,2.9-5.8l1.5-1.6l-0.9-0.9c-0.8-0.7-1.4-1.1-2.2-1.2c-0.8-0.1-1.4,0.2-2,0.9
				c-0.6,0.6-0.9,1.3-0.8,1.9c0.1,0.7,0.3,1.3,1,1.8l-3.3,3.6c-0.9-0.9-1.5-1.8-1.8-3.1c-0.3-1.2-0.3-2.4,0.1-3.7
				c0.4-1.3,1.1-2.5,2-3.6c1.5-1.6,3.2-2.5,5.1-2.6c1.8-0.1,3.7,0.7,5.4,2.3l6.8,6.3c1.5,1.4,2.8,2.2,3.9,2.6l0.3,0.2L207.6,142.9z
				 M202,143.2c0.5-0.5,0.8-1.2,1-1.8s0.1-1.4-0.2-2l-2.7-2.5l-1.3,1.4c-1.6,1.8-1.8,3.4-0.5,4.8l0.2,0.2c0.5,0.5,1.1,0.7,1.7,0.7
				C200.9,144.1,201.5,143.8,202,143.2z"/>
			<path class="st0" d="M214.3,115c2.8,1.7,4.7,3.7,5.7,5.8c1,2.1,1,4.1-0.2,6c-1,1.5-2.4,2.4-4.2,2.6l8.6,5.3l-2.6,4.1l-25.1-15.5
				l2.4-3.9l1.8,1c-0.8-1.8-0.7-3.7,0.3-5.2c1.2-1.9,2.9-2.9,5.2-2.9c2.3,0,4.9,0.9,7.8,2.6L214.3,115z M211.4,119
				c-1.6-1.1-3.2-1.6-4.3-1.6c-1.3-0.1-2.1,0.4-2.8,1.4c-0.8,1.3-0.8,2.5,0.1,3.8l7.4,4.6c1.5,0.2,2.7-0.3,3.5-1.6
				C216.5,123.5,215.2,121.3,211.4,119z"/>
			<path class="st0" d="M227.3,111.1l-1.9,4.4l-27.8-12.1l1.9-4.4L227.3,111.1z"/>
			<path class="st0" d="M203.6,97.8c-0.8-0.3-1.4-0.7-1.7-1.4c-0.4-0.7-0.4-1.4-0.2-2.1c0.3-0.8,0.8-1.4,1.4-1.6s1.4-0.3,2.2,0
				c0.9,0.3,1.4,0.8,1.8,1.4c0.4,0.7,0.4,1.4,0.2,2.1c-0.3,0.8-0.8,1.4-1.4,1.6C205.3,98.1,204.5,98.1,203.6,97.8z M230.7,101.3
				l-1.5,4.6l-20.3-6.8l1.5-4.6L230.7,101.3z"/>
			<path class="st0" d="M225.6,75.9l-1.2,9.5l-4.5-0.6l1.2-9.5L225.6,75.9z"/>
		</g>
	</g>
	<g>
		<path class="st1" d="M118.7,128.6c-21.2-16.4-45.2-35-45-96.6c15.8-4.9,28.8-10.4,39.5-14.8c2.8-1.2,5.4-2.2,7.9-3.3V4.4
			c-3.5,1.4-7.3,2.9-11.4,4.6c-11.1,4.6-24.9,10.4-41.8,15.5l-3.2,1l-0.1,3.3c-1.2,68.6,26.3,89.9,48.5,107.1
			c1.9,1.4,6.8,5.2,7.9,6.1v-11.4C120.3,129.9,119.5,129.3,118.7,128.6z"/>
		<g>
			<g>
				<path class="st1" d="M129.1,17.3c-2.8-1.2-5.5-2.2-8-3.3v59.7l28-28c2.8-2.8,7.4-2.8,10.3,0c2.8,2.8,2.8,7.4,0,10.3l-38.3,38.3
					v36.1c0.8-0.6,1.6-1.3,2.4-1.8c21.6-16.4,46-35,45.7-96.6C153.2,27.2,139.9,21.8,129.1,17.3z"/>
			</g>
			<path class="st1" d="M154.2,43.7c1.8,0,3.8,0.7,5.1,2.1c2.8,2.8,2.8,7.4,0,10.3l-41.5,41.5c-1.4,1.4-3.3,2.1-5.1,2.1
				c-1.8,0-3.8-0.7-5.1-2.1l-14-13.7c-2.8-2.8-2.8-7.4,0-10.3c1.4-1.4,3.3-2.1,5.1-2.1c1.8,0,3.8,0.7,5.1,2.1l8.8,8.6L149,45.8
				C150.5,44.3,152.4,43.7,154.2,43.7 M154.2,39L154.2,39c-3.2,0-6.2,1.3-8.5,3.5l-33.1,33.1l-5.5-5.4c-2.2-2.2-5.2-3.5-8.4-3.5
				s-6.2,1.3-8.5,3.5c-4.6,4.6-4.6,12.3,0,16.9l14,13.8c2.2,2.2,5.2,3.5,8.4,3.5s6.2-1.3,8.5-3.5l41.5-41.5c2.2-2.2,3.5-5.2,3.5-8.5
				c0-3.2-1.3-6.2-3.5-8.5C160.4,40.3,157.4,39,154.2,39L154.2,39z"/>
		</g>
		<path class="st0" d="M177.6,28.7l-0.1-3.3l-3.2-1c-15.6-4.7-28.7-10-39.4-14.5h0c-0.9-0.4-1.7-0.7-2.5-1.1
			c-4.1-1.6-7.9-3.3-11.4-4.6V10h0V14c2.7,1.1,5.3,2.2,8.1,3.3c10.6,4.4,23.6,9.8,39.5,14.8c0.2,61.5-23.8,80.1-45,96.6
			c-0.8,0.6-1.5,1.3-2.4,1.8v11.4c1.2-0.9,6-4.5,7.9-6.1C151.2,118.7,178.7,97.4,177.6,28.7z"/>
	</g>
</g>
</svg>
